<svg width="58" height="17" viewBox="0 0 58 17" fill="none" xmlns="http://www.w3.org/2000/svg">
<path d="M0.548828 9.11328C0.653646 9.01302 0.774414 8.89909 0.911133 8.77148C1.04329 8.64388 1.17546 8.50488 1.30762 8.35449C1.44434 8.2041 1.56966 8.04232 1.68359 7.86914C1.80208 7.69596 1.89551 7.50911 1.96387 7.30859C1.9821 7.20378 2.00944 7.0944 2.0459 6.98047C2.08691 6.86198 2.13021 6.75488 2.17578 6.65918C2.22591 6.56348 2.27376 6.48372 2.31934 6.41992C2.36491 6.35612 2.40592 6.32422 2.44238 6.32422C2.49707 6.35612 2.5791 6.41764 2.68848 6.50879C2.79785 6.59538 2.90723 6.6888 3.0166 6.78906C3.12598 6.88932 3.22168 6.98275 3.30371 7.06934C3.3903 7.15137 3.43359 7.2015 3.43359 7.21973C3.37891 7.42936 3.35156 7.61849 3.35156 7.78711C3.35612 7.95573 3.36979 8.12207 3.39258 8.28613C3.41992 8.4502 3.44727 8.62565 3.47461 8.8125C3.50651 8.99479 3.52246 9.20671 3.52246 9.44824C3.52246 9.59408 3.4974 9.7627 3.44727 9.9541C3.40169 10.141 3.31966 10.3096 3.20117 10.46C3.43359 10.3232 3.66374 10.1706 3.8916 10.002C4.11947 9.82878 4.32227 9.66699 4.5 9.5166C4.70964 9.33887 4.91016 9.16113 5.10156 8.9834L5.40918 9.31836C5.25879 9.45964 5.09473 9.61003 4.91699 9.76953C4.74382 9.92904 4.56152 10.0863 4.37012 10.2412C4.18327 10.3962 3.99186 10.5443 3.7959 10.6855C3.59993 10.8268 3.40625 10.9521 3.21484 11.0615C3.02344 11.1709 2.83887 11.2575 2.66113 11.3213C2.4834 11.3851 2.31706 11.417 2.16211 11.417C2.02995 11.417 1.88411 11.3851 1.72461 11.3213C1.5651 11.2575 1.41471 11.18 1.27344 11.0889C1.13216 10.9977 1.00911 10.902 0.904297 10.8018C0.799479 10.7015 0.737956 10.6172 0.719727 10.5488C0.719727 10.5397 0.728841 10.5215 0.74707 10.4941C0.765299 10.4622 0.788086 10.4303 0.81543 10.3984C0.838216 10.3665 0.863281 10.3392 0.890625 10.3164C0.913411 10.2891 0.931641 10.2754 0.945312 10.2754C0.972656 10.2754 1.02734 10.2959 1.10938 10.3369C1.19141 10.3779 1.32812 10.3984 1.51953 10.3984C1.62435 10.3984 1.71322 10.3711 1.78613 10.3164C1.86361 10.2617 1.92741 10.1888 1.97754 10.0977C2.02767 10.0065 2.06413 9.90169 2.08691 9.7832C2.1097 9.66471 2.12109 9.53939 2.12109 9.40723C2.12109 9.21582 2.11198 9.03125 2.09375 8.85352C2.07552 8.67122 2.05501 8.49577 2.03223 8.32715C1.95475 8.41829 1.86589 8.514 1.76562 8.61426C1.66536 8.71452 1.56283 8.81478 1.45801 8.91504C1.35775 9.01074 1.25521 9.10645 1.15039 9.20215C1.05013 9.29329 0.958984 9.37533 0.876953 9.44824L0.548828 9.11328ZM5.76465 11.376C5.68717 11.376 5.58464 11.3395 5.45703 11.2666C5.33398 11.1982 5.21322 11.1117 5.09473 11.0068C4.97624 10.9066 4.8737 10.8018 4.78711 10.6924C4.70052 10.583 4.65723 10.4896 4.65723 10.4121C4.65723 10.2754 4.69596 10.0589 4.77344 9.7627C4.84635 9.46647 4.94434 9.12923 5.06738 8.75098C5.19043 8.36816 5.32943 7.96029 5.48438 7.52734C5.64388 7.0944 5.80339 6.67057 5.96289 6.25586H4.99902H4.99219C4.98763 6.25586 4.98535 6.2513 4.98535 6.24219C4.98535 6.21484 4.99674 6.17611 5.01953 6.12598C5.03776 6.07129 5.06283 6.0166 5.09473 5.96191C5.12207 5.90267 5.15625 5.85026 5.19727 5.80469C5.23372 5.75456 5.27018 5.72266 5.30664 5.70898L6.19531 5.66797C6.32292 5.35807 6.44368 5.07324 6.55762 4.81348C6.67611 4.54915 6.78092 4.32357 6.87207 4.13672C6.89486 4.08659 6.91764 4.03418 6.94043 3.97949C6.96777 3.92025 7.00423 3.86328 7.0498 3.80859C7.09993 3.74935 7.16374 3.6901 7.24121 3.63086C7.32324 3.56706 7.43262 3.50326 7.56934 3.43945C7.6696 3.38932 7.79036 3.33464 7.93164 3.27539C8.07747 3.21615 8.21875 3.16146 8.35547 3.11133C8.49674 3.0612 8.62435 3.02018 8.73828 2.98828C8.85221 2.95182 8.93424 2.93359 8.98438 2.93359C9.02995 2.93359 9.05273 2.94271 9.05273 2.96094V2.97461C9.05273 2.97917 9.04818 2.99056 9.03906 3.00879C9.01172 3.05436 8.96159 3.15462 8.88867 3.30957C8.81576 3.45996 8.72461 3.65137 8.61523 3.88379C8.51042 4.11165 8.39193 4.3737 8.25977 4.66992C8.13216 4.96159 8 5.27148 7.86328 5.59961L9.50391 5.53809C9.54948 5.53809 9.56315 5.56543 9.54492 5.62012C9.52669 5.6748 9.49251 5.73861 9.44238 5.81152C9.39225 5.88444 9.33301 5.95964 9.26465 6.03711C9.20085 6.11458 9.14616 6.17383 9.10059 6.21484C9.09147 6.22396 9.07324 6.23307 9.0459 6.24219C9.01855 6.2513 8.98438 6.25586 8.94336 6.25586H7.58984C7.42578 6.65234 7.26855 7.05339 7.11816 7.45898C6.96777 7.86458 6.83333 8.24967 6.71484 8.61426C6.59635 8.97884 6.50065 9.3138 6.42773 9.61914C6.35938 9.92448 6.3252 10.1751 6.3252 10.3711C6.3252 10.3984 6.33887 10.4121 6.36621 10.4121C6.41634 10.4121 6.49154 10.3848 6.5918 10.3301C6.69206 10.2708 6.80371 10.1956 6.92676 10.1045C7.05436 10.0133 7.1888 9.91309 7.33008 9.80371C7.47135 9.69434 7.60579 9.58724 7.7334 9.48242C7.861 9.37305 7.97493 9.27507 8.0752 9.18848C8.18001 9.09733 8.25977 9.02897 8.31445 8.9834C8.35547 9.02441 8.40332 9.07682 8.45801 9.14062C8.51725 9.20443 8.57194 9.26367 8.62207 9.31836C8.52181 9.41862 8.39648 9.54167 8.24609 9.6875C8.0957 9.82878 7.93164 9.97461 7.75391 10.125C7.58073 10.2754 7.39844 10.4258 7.20703 10.5762C7.02018 10.7266 6.83561 10.861 6.65332 10.9795C6.47559 11.098 6.30924 11.1937 6.1543 11.2666C5.99935 11.3395 5.86947 11.376 5.76465 11.376ZM12.1562 10.3984C12.1562 10.4258 12.1699 10.4395 12.1973 10.4395C12.2383 10.4395 12.3066 10.4098 12.4023 10.3506C12.498 10.2913 12.6074 10.2161 12.7305 10.125C12.8535 10.0339 12.9834 9.93132 13.1201 9.81738C13.2614 9.70345 13.3958 9.5918 13.5234 9.48242C13.651 9.37305 13.765 9.27279 13.8652 9.18164C13.9701 9.09049 14.0498 9.01986 14.1045 8.96973C14.1455 9.01074 14.1956 9.06543 14.2549 9.13379C14.3187 9.20215 14.3757 9.26367 14.4258 9.31836C14.3164 9.41862 14.1842 9.54167 14.0293 9.6875C13.8789 9.82878 13.7148 9.97689 13.5371 10.1318C13.3639 10.2868 13.1839 10.4417 12.9971 10.5967C12.8102 10.7471 12.6279 10.8815 12.4502 11C12.2725 11.1185 12.1038 11.2142 11.9443 11.2871C11.7848 11.3646 11.6458 11.4033 11.5273 11.4033C11.4453 11.4033 11.3542 11.3874 11.2539 11.3555C11.1582 11.3236 11.0693 11.278 10.9873 11.2188C10.9053 11.1641 10.8369 11.098 10.7822 11.0205C10.7275 10.943 10.7002 10.8564 10.7002 10.7607C10.7002 10.7243 10.6979 10.681 10.6934 10.6309C10.6934 10.5762 10.6979 10.5078 10.707 10.4258C10.7161 10.3392 10.7344 10.2367 10.7617 10.1182C10.7891 9.99512 10.8301 9.84473 10.8848 9.66699C10.7344 9.8265 10.5566 9.99284 10.3516 10.166C10.151 10.3392 9.93913 10.5033 9.71582 10.6582C9.49251 10.8132 9.26693 10.9521 9.03906 11.0752C8.81576 11.2028 8.6084 11.2985 8.41699 11.3623C8.39421 11.3714 8.37598 11.376 8.3623 11.376C8.34863 11.376 8.33496 11.376 8.32129 11.376C8.27572 11.376 8.21647 11.3532 8.14355 11.3076C8.06608 11.262 7.99089 11.2005 7.91797 11.123C7.84505 11.0501 7.78353 10.9658 7.7334 10.8701C7.67871 10.7744 7.65137 10.6787 7.65137 10.583C7.65137 10.5557 7.66504 10.4645 7.69238 10.3096C7.71973 10.1546 7.78581 9.95866 7.89062 9.72168C7.99089 9.48014 8.14128 9.21126 8.3418 8.91504C8.54232 8.61426 8.81576 8.30664 9.16211 7.99219C9.33984 7.83268 9.53125 7.68229 9.73633 7.54102C9.90951 7.42253 10.1077 7.30176 10.3311 7.17871C10.5544 7.05566 10.7891 6.95768 11.0352 6.88477C11.0443 6.88477 11.0511 6.88249 11.0557 6.87793C11.0648 6.87337 11.0762 6.87565 11.0898 6.88477C11.1445 6.90299 11.2083 6.93262 11.2812 6.97363C11.3587 7.01009 11.4339 7.05111 11.5068 7.09668C11.5843 7.1377 11.6504 7.18099 11.7051 7.22656C11.7643 7.26758 11.8031 7.30176 11.8213 7.3291C11.8258 7.33822 11.8258 7.34505 11.8213 7.34961L11.8076 7.36328C11.6025 7.47266 11.4089 7.5957 11.2266 7.73242C11.0443 7.86458 10.8825 7.98991 10.7412 8.1084C10.5771 8.24967 10.4245 8.38867 10.2832 8.52539C9.95052 8.85352 9.72038 9.13835 9.59277 9.37988C9.46517 9.61686 9.40137 9.78776 9.40137 9.89258C9.40137 9.97005 9.43327 10.0088 9.49707 10.0088C9.56087 10.0088 9.64062 9.98372 9.73633 9.93359C9.83659 9.87891 9.94824 9.80827 10.0713 9.72168C10.1943 9.63053 10.3288 9.52572 10.4746 9.40723C10.625 9.28418 10.7799 9.15658 10.9395 9.02441C11.0807 8.91048 11.2174 8.78743 11.3496 8.65527C11.4635 8.5459 11.582 8.42057 11.7051 8.2793C11.8281 8.13802 11.9329 7.99447 12.0195 7.84863C12.0195 7.84408 12.0218 7.83952 12.0264 7.83496C12.0309 7.8304 12.0378 7.8304 12.0469 7.83496C12.097 7.87142 12.154 7.93294 12.2178 8.01953C12.2816 8.10156 12.3408 8.19271 12.3955 8.29297C12.4502 8.39323 12.4958 8.49121 12.5322 8.58691C12.5732 8.67806 12.5938 8.7487 12.5938 8.79883C12.4889 9.01302 12.4069 9.20898 12.3477 9.38672C12.293 9.5599 12.2497 9.71257 12.2178 9.84473C12.1904 9.97689 12.1722 10.0908 12.1631 10.1865C12.1585 10.2777 12.1562 10.3483 12.1562 10.3984ZM19.915 9.30469C19.5049 9.67383 19.0833 10.0225 18.6504 10.3506C18.2174 10.6787 17.7845 10.9954 17.3516 11.3008C17.2878 11.4922 17.2148 11.695 17.1328 11.9092C17.0508 12.1234 16.9505 12.3672 16.832 12.6406C16.6999 12.9414 16.5495 13.2354 16.3809 13.5225C16.2122 13.8096 16.0322 14.0785 15.8408 14.3291C15.654 14.5843 15.4603 14.8167 15.2598 15.0264C15.0592 15.236 14.861 15.416 14.665 15.5664C14.4736 15.7214 14.2891 15.8398 14.1113 15.9219C13.929 16.0085 13.7627 16.0518 13.6123 16.0518C13.5394 16.0518 13.4505 16.0244 13.3457 15.9697C13.2409 15.915 13.1406 15.8444 13.0449 15.7578C12.9492 15.6758 12.8695 15.5869 12.8057 15.4912C12.7373 15.3955 12.7031 15.3066 12.7031 15.2246C12.7031 14.9375 12.7806 14.6549 12.9355 14.377C13.0905 14.1035 13.3047 13.8278 13.5781 13.5498C13.847 13.2718 14.1637 12.9893 14.5283 12.7021C14.8975 12.4196 15.2939 12.1279 15.7178 11.8271C15.8499 11.4762 15.9775 11.1117 16.1006 10.7334C16.2282 10.3506 16.3512 9.97233 16.4697 9.59863C16.2738 9.84928 16.0846 10.068 15.9023 10.2549C15.7201 10.4417 15.5514 10.6012 15.3965 10.7334C15.2415 10.861 15.1071 10.9635 14.9932 11.041C14.8792 11.123 14.7926 11.1846 14.7334 11.2256C14.6969 11.2484 14.6536 11.2643 14.6035 11.2734C14.5534 11.2871 14.5078 11.2939 14.4668 11.2939C14.3802 11.2939 14.2845 11.2666 14.1797 11.2119C14.0749 11.1618 13.9792 11.0957 13.8926 11.0137C13.8014 10.9362 13.7262 10.8496 13.667 10.7539C13.6032 10.6582 13.5713 10.5671 13.5713 10.4805C13.5713 10.3802 13.6055 10.2207 13.6738 10.002C13.7376 9.77865 13.8265 9.50977 13.9404 9.19531C14.0498 8.88086 14.1797 8.52767 14.3301 8.13574C14.4805 7.74382 14.6423 7.32682 14.8154 6.88477C14.8245 6.86198 14.8314 6.85286 14.8359 6.85742C14.8451 6.85742 14.8587 6.85742 14.877 6.85742C14.9635 6.87109 15.082 6.90755 15.2324 6.9668C15.3828 7.02148 15.5286 7.08301 15.6699 7.15137C15.8158 7.21973 15.9411 7.28581 16.0459 7.34961C16.1507 7.40885 16.2031 7.44987 16.2031 7.47266C16.1895 7.50456 16.153 7.57975 16.0938 7.69824C16.0391 7.81673 15.973 7.96029 15.8955 8.12891C15.8226 8.29297 15.7428 8.47298 15.6562 8.66895C15.5742 8.86035 15.4967 9.04492 15.4238 9.22266C15.3555 9.40039 15.2985 9.56217 15.2529 9.70801C15.2074 9.84928 15.1846 9.9541 15.1846 10.0225C15.1846 10.0407 15.1937 10.0498 15.2119 10.0498C15.2438 10.0498 15.3122 10.0088 15.417 9.92676C15.5264 9.84473 15.6608 9.71484 15.8203 9.53711C15.9798 9.35938 16.1598 9.13379 16.3604 8.86035C16.5609 8.58236 16.7728 8.24967 16.9961 7.8623C17.0872 7.56152 17.1624 7.32227 17.2217 7.14453C17.2809 6.96224 17.3197 6.87109 17.3379 6.87109C17.3652 6.87109 17.4359 6.90527 17.5498 6.97363C17.6637 7.04199 17.7845 7.12402 17.9121 7.21973C18.0397 7.31087 18.1536 7.4043 18.2539 7.5C18.3542 7.59115 18.4043 7.66178 18.4043 7.71191C18.4043 7.7347 18.402 7.75521 18.3975 7.77344C18.3929 7.79167 18.3861 7.81217 18.377 7.83496C18.2721 8.15397 18.181 8.44336 18.1035 8.70312C18.026 8.95833 17.9554 9.19303 17.8916 9.40723C17.8324 9.62142 17.7777 9.81966 17.7275 10.002C17.682 10.1797 17.6364 10.3529 17.5908 10.5215C17.9326 10.2754 18.2721 10.0247 18.6094 9.76953C18.9466 9.50977 19.2793 9.23861 19.6074 8.95605L19.915 9.30469ZM13.5713 15.2998C13.6533 15.2998 13.7673 15.2201 13.9131 15.0605C14.0589 14.9056 14.2161 14.7051 14.3848 14.459C14.5534 14.2129 14.722 13.9372 14.8906 13.6318C15.0638 13.3311 15.2165 13.0348 15.3486 12.7432C15.1755 12.889 14.9818 13.0485 14.7676 13.2217C14.5534 13.3949 14.3529 13.584 14.166 13.7891C13.9792 13.9941 13.8219 14.2129 13.6943 14.4453C13.5667 14.6823 13.5029 14.9329 13.5029 15.1973C13.5029 15.2656 13.5257 15.2998 13.5713 15.2998ZM20.2295 11.376C20.152 11.376 20.0495 11.3395 19.9219 11.2666C19.7988 11.1982 19.6781 11.1117 19.5596 11.0068C19.4411 10.9066 19.3385 10.8018 19.252 10.6924C19.1654 10.583 19.1221 10.4896 19.1221 10.4121C19.1221 10.2754 19.1608 10.0589 19.2383 9.7627C19.3112 9.46647 19.4092 9.12923 19.5322 8.75098C19.6553 8.36816 19.7943 7.96029 19.9492 7.52734C20.1087 7.0944 20.2682 6.67057 20.4277 6.25586H19.4639H19.457C19.4525 6.25586 19.4502 6.2513 19.4502 6.24219C19.4502 6.21484 19.4616 6.17611 19.4844 6.12598C19.5026 6.07129 19.5277 6.0166 19.5596 5.96191C19.5869 5.90267 19.6211 5.85026 19.6621 5.80469C19.6986 5.75456 19.735 5.72266 19.7715 5.70898L20.6602 5.66797C20.7878 5.35807 20.9085 5.07324 21.0225 4.81348C21.141 4.54915 21.2458 4.32357 21.3369 4.13672C21.3597 4.08659 21.3825 4.03418 21.4053 3.97949C21.4326 3.92025 21.4691 3.86328 21.5146 3.80859C21.5648 3.74935 21.6286 3.6901 21.7061 3.63086C21.7881 3.56706 21.8975 3.50326 22.0342 3.43945C22.1344 3.38932 22.2552 3.33464 22.3965 3.27539C22.5423 3.21615 22.6836 3.16146 22.8203 3.11133C22.9616 3.0612 23.0892 3.02018 23.2031 2.98828C23.3171 2.95182 23.3991 2.93359 23.4492 2.93359C23.4948 2.93359 23.5176 2.94271 23.5176 2.96094V2.97461C23.5176 2.97917 23.513 2.99056 23.5039 3.00879C23.4766 3.05436 23.4264 3.15462 23.3535 3.30957C23.2806 3.45996 23.1895 3.65137 23.0801 3.88379C22.9753 4.11165 22.8568 4.3737 22.7246 4.66992C22.597 4.96159 22.4648 5.27148 22.3281 5.59961L23.9688 5.53809C24.0143 5.53809 24.028 5.56543 24.0098 5.62012C23.9915 5.6748 23.9574 5.73861 23.9072 5.81152C23.8571 5.88444 23.7979 5.95964 23.7295 6.03711C23.6657 6.11458 23.611 6.17383 23.5654 6.21484C23.5563 6.22396 23.5381 6.23307 23.5107 6.24219C23.4834 6.2513 23.4492 6.25586 23.4082 6.25586H22.0547C21.8906 6.65234 21.7334 7.05339 21.583 7.45898C21.4326 7.86458 21.2982 8.24967 21.1797 8.61426C21.0612 8.97884 20.9655 9.3138 20.8926 9.61914C20.8242 9.92448 20.79 10.1751 20.79 10.3711C20.79 10.3984 20.8037 10.4121 20.8311 10.4121C20.8812 10.4121 20.9564 10.3848 21.0566 10.3301C21.1569 10.2708 21.2686 10.1956 21.3916 10.1045C21.5192 10.0133 21.6536 9.91309 21.7949 9.80371C21.9362 9.69434 22.0706 9.58724 22.1982 9.48242C22.3258 9.37305 22.4398 9.27507 22.54 9.18848C22.6449 9.09733 22.7246 9.02897 22.7793 8.9834C22.8203 9.02441 22.8682 9.07682 22.9229 9.14062C22.9821 9.20443 23.0368 9.26367 23.0869 9.31836C22.9867 9.41862 22.8613 9.54167 22.7109 9.6875C22.5605 9.82878 22.3965 9.97461 22.2188 10.125C22.0456 10.2754 21.8633 10.4258 21.6719 10.5762C21.485 10.7266 21.3005 10.861 21.1182 10.9795C20.9404 11.098 20.7741 11.1937 20.6191 11.2666C20.4642 11.3395 20.3343 11.376 20.2295 11.376ZM23.2168 11.376C23.1484 11.376 23.0618 11.3509 22.957 11.3008C22.8522 11.2552 22.752 11.196 22.6562 11.123C22.5605 11.0547 22.4785 10.9772 22.4102 10.8906C22.3418 10.804 22.3076 10.7197 22.3076 10.6377C22.3532 10.4372 22.4147 10.207 22.4922 9.94727C22.5697 9.6875 22.654 9.42318 22.7451 9.1543C22.8317 8.88542 22.9251 8.62337 23.0254 8.36816C23.1211 8.1084 23.2077 7.87826 23.2852 7.67773C23.3672 7.47721 23.4378 7.31543 23.4971 7.19238C23.5563 7.06934 23.5951 7.00781 23.6133 7.00781C23.6406 7.00781 23.709 7.03743 23.8184 7.09668C23.9277 7.15592 24.0417 7.22884 24.1602 7.31543C24.2832 7.39746 24.3926 7.48633 24.4883 7.58203C24.584 7.67318 24.6318 7.75293 24.6318 7.82129C24.6318 7.83496 24.6296 7.85319 24.625 7.87598C24.6204 7.89421 24.6136 7.91927 24.6045 7.95117C24.568 8.0651 24.5202 8.19954 24.4609 8.35449C24.4062 8.50944 24.347 8.67122 24.2832 8.83984C24.2194 9.00391 24.1556 9.17025 24.0918 9.33887C24.028 9.50293 23.971 9.65788 23.9209 9.80371C23.8708 9.94954 23.8298 10.0771 23.7979 10.1865C23.766 10.2959 23.75 10.3757 23.75 10.4258C23.75 10.4531 23.7637 10.4668 23.791 10.4668C23.8411 10.4668 23.9163 10.4372 24.0166 10.3779C24.1169 10.3187 24.2308 10.2412 24.3584 10.1455C24.4906 10.0498 24.6273 9.94499 24.7686 9.83105C24.9098 9.71712 25.0443 9.60547 25.1719 9.49609C25.304 9.38216 25.4225 9.27962 25.5273 9.18848C25.6322 9.09733 25.7119 9.02897 25.7666 8.9834C25.8076 9.02441 25.8555 9.07682 25.9102 9.14062C25.9694 9.20443 26.0241 9.26367 26.0742 9.31836C25.974 9.41862 25.8486 9.54167 25.6982 9.6875C25.5479 9.82878 25.3838 9.97461 25.2061 10.125C25.0329 10.2754 24.8506 10.4258 24.6592 10.5762C24.4723 10.7266 24.29 10.861 24.1123 10.9795C23.9346 11.098 23.7682 11.1937 23.6133 11.2666C23.4583 11.3395 23.3262 11.376 23.2168 11.376ZM25.9238 4.92285C25.9193 4.94108 25.901 4.98665 25.8691 5.05957C25.8418 5.12793 25.8076 5.20996 25.7666 5.30566C25.7256 5.39681 25.6777 5.49479 25.623 5.59961C25.5729 5.69987 25.5228 5.79329 25.4727 5.87988C25.4225 5.96647 25.3747 6.03939 25.3291 6.09863C25.2835 6.15332 25.2471 6.18066 25.2197 6.18066C25.1377 6.17611 25.0374 6.15104 24.9189 6.10547C24.805 6.0599 24.6934 6.00977 24.584 5.95508C24.4792 5.89583 24.388 5.83887 24.3105 5.78418C24.2376 5.72949 24.2012 5.69076 24.2012 5.66797C24.2012 5.57227 24.2285 5.44922 24.2832 5.29883C24.3379 5.14388 24.4017 4.99577 24.4746 4.85449C24.5475 4.70866 24.6204 4.58333 24.6934 4.47852C24.7708 4.3737 24.8301 4.32129 24.8711 4.32129C24.9531 4.32129 25.0534 4.34863 25.1719 4.40332C25.2904 4.45345 25.4043 4.5127 25.5137 4.58105C25.6276 4.64941 25.7233 4.71777 25.8008 4.78613C25.8828 4.84993 25.9238 4.89551 25.9238 4.92285ZM26.5254 10.3027C26.5254 10.4395 26.5755 10.5078 26.6758 10.5078C26.7806 10.5078 26.9196 10.4258 27.0928 10.2617C27.266 10.0931 27.446 9.88118 27.6328 9.62598C27.6237 9.57585 27.6169 9.53255 27.6123 9.49609C27.6123 9.45508 27.6123 9.41862 27.6123 9.38672C27.6123 9.29557 27.6214 9.18848 27.6396 9.06543C27.6624 8.93783 27.7148 8.79427 27.7969 8.63477C27.8516 8.51172 27.9176 8.39095 27.9951 8.27246C28.0589 8.16764 28.1364 8.05599 28.2275 7.9375C28.3187 7.81445 28.4189 7.70052 28.5283 7.5957L28.5693 7.55469C28.6149 7.60938 28.6742 7.68457 28.7471 7.78027C28.8245 7.87142 28.8997 7.96712 28.9727 8.06738C29.0501 8.16309 29.1162 8.25195 29.1709 8.33398C29.2301 8.41602 29.2666 8.47298 29.2803 8.50488C29.2803 8.70085 29.2438 8.89681 29.1709 9.09277C29.1025 9.28874 29.0091 9.48242 28.8906 9.67383C29.1641 9.6556 29.417 9.58724 29.6494 9.46875C29.8864 9.3457 30.1325 9.14746 30.3877 8.87402C30.4287 8.91504 30.4811 8.97201 30.5449 9.04492C30.6133 9.11328 30.668 9.17253 30.709 9.22266C30.5176 9.42318 30.3285 9.58952 30.1416 9.72168C29.9593 9.85384 29.7747 9.95866 29.5879 10.0361C29.4056 10.1136 29.2188 10.1706 29.0273 10.207C28.8359 10.2389 28.64 10.2549 28.4395 10.2549C28.2845 10.4189 28.1182 10.5693 27.9404 10.7061C27.7627 10.8428 27.5804 10.9613 27.3936 11.0615C27.2113 11.1618 27.029 11.2393 26.8467 11.2939C26.6644 11.3486 26.4912 11.376 26.3271 11.376C26.1904 11.376 26.0492 11.335 25.9033 11.2529C25.7575 11.1709 25.6253 11.0706 25.5068 10.9521C25.3883 10.8291 25.2904 10.6992 25.2129 10.5625C25.1354 10.4258 25.0967 10.305 25.0967 10.2002C25.0967 9.85384 25.1445 9.50977 25.2402 9.16797C25.3314 8.82617 25.4772 8.50716 25.6777 8.21094C25.8737 7.91016 26.1243 7.64583 26.4297 7.41797C26.7396 7.1901 27.1064 7.01693 27.5303 6.89844C27.5439 6.88932 27.5667 6.88249 27.5986 6.87793C27.6351 6.87337 27.6647 6.87109 27.6875 6.87109C27.7513 6.87109 27.8174 6.89616 27.8857 6.94629C27.9587 6.99186 28.0247 7.04427 28.084 7.10352C28.1478 7.16276 28.2002 7.22201 28.2412 7.28125C28.2822 7.33594 28.3027 7.3724 28.3027 7.39062C28.2936 7.41341 28.2594 7.44303 28.2002 7.47949C28.141 7.51139 28.0612 7.56836 27.9609 7.65039C27.8607 7.73242 27.7422 7.85091 27.6055 8.00586C27.4688 8.15625 27.3184 8.35677 27.1543 8.60742C26.9082 8.97656 26.7419 9.31152 26.6553 9.6123C26.5687 9.90853 26.5254 10.1387 26.5254 10.3027ZM32.2266 7.69824C32.1719 7.84408 32.1172 7.99219 32.0625 8.14258C32.0078 8.29297 31.9531 8.44792 31.8984 8.60742C32.1855 8.2793 32.4316 8.0127 32.6367 7.80762C32.8464 7.59798 33.0218 7.43392 33.1631 7.31543C33.3089 7.19694 33.4251 7.11719 33.5117 7.07617C33.6029 7.0306 33.6735 7.00781 33.7236 7.00781C33.7829 7.00781 33.8717 7.03743 33.9902 7.09668C34.1087 7.15592 34.2272 7.22884 34.3457 7.31543C34.4688 7.40202 34.5736 7.49089 34.6602 7.58203C34.7513 7.67318 34.7969 7.75293 34.7969 7.82129C34.7969 7.83496 34.7946 7.85319 34.79 7.87598C34.7855 7.89421 34.7786 7.91927 34.7695 7.95117C34.7331 8.0651 34.6852 8.19954 34.626 8.35449C34.5713 8.50944 34.512 8.67122 34.4482 8.83984C34.3844 9.00391 34.3206 9.17025 34.2568 9.33887C34.193 9.50293 34.1361 9.65788 34.0859 9.80371C34.0358 9.94954 33.9948 10.0771 33.9629 10.1865C33.931 10.2959 33.915 10.3757 33.915 10.4258C33.915 10.4531 33.9287 10.4668 33.9561 10.4668C34.0062 10.4668 34.0814 10.4372 34.1816 10.3779C34.2819 10.3187 34.3958 10.2412 34.5234 10.1455C34.6556 10.0498 34.7923 9.94499 34.9336 9.83105C35.0749 9.71712 35.2093 9.60547 35.3369 9.49609C35.4691 9.38216 35.5876 9.27962 35.6924 9.18848C35.7972 9.09733 35.877 9.02897 35.9316 8.9834C35.9772 9.02441 36.0273 9.07682 36.082 9.14062C36.1367 9.20443 36.1891 9.26367 36.2393 9.31836C36.139 9.41862 36.0137 9.54167 35.8633 9.6875C35.7129 9.82878 35.5488 9.97461 35.3711 10.125C35.1979 10.2754 35.0156 10.4258 34.8242 10.5762C34.6374 10.7266 34.4551 10.861 34.2773 10.9795C34.0996 11.098 33.9333 11.1937 33.7783 11.2666C33.6234 11.3395 33.4935 11.376 33.3887 11.376C33.3203 11.376 33.2337 11.3509 33.1289 11.3008C33.0241 11.2552 32.9215 11.196 32.8213 11.123C32.7256 11.0547 32.6436 10.9772 32.5752 10.8906C32.5068 10.804 32.4727 10.7197 32.4727 10.6377C32.5137 10.4508 32.5684 10.2389 32.6367 10.002C32.7096 9.76497 32.7871 9.52344 32.8691 9.27734C32.9512 9.02669 33.0355 8.7806 33.1221 8.53906C33.2132 8.29297 33.2998 8.06738 33.3818 7.8623L33.3682 7.87598C33.2816 7.98079 33.1562 8.11979 32.9922 8.29297C32.8327 8.46159 32.6504 8.68034 32.4453 8.94922C32.2402 9.21354 32.0238 9.53483 31.7959 9.91309C31.568 10.2868 31.3447 10.7311 31.126 11.2461C31.0986 11.3099 31.0736 11.36 31.0508 11.3965C31.028 11.4329 30.9847 11.4512 30.9209 11.4512C30.8434 11.4512 30.7546 11.4284 30.6543 11.3828C30.5586 11.3418 30.4606 11.2848 30.3604 11.2119C30.2555 11.1436 30.153 11.0661 30.0527 10.9795C29.9479 10.8929 29.8545 10.8063 29.7725 10.7197C29.7725 10.6924 29.7861 10.6149 29.8135 10.4873C29.8363 10.3597 29.8704 10.2002 29.916 10.0088C29.9616 9.81283 30.0186 9.5918 30.0869 9.3457C30.1553 9.09505 30.2327 8.83301 30.3193 8.55957C30.4059 8.28613 30.5016 8.00814 30.6064 7.72559C30.7067 7.43848 30.8161 7.16276 30.9346 6.89844C31.126 6.98958 31.3379 7.10124 31.5703 7.2334C31.8073 7.36556 32.026 7.52051 32.2266 7.69824ZM40.8125 1.62109C40.6074 2.15885 40.4023 2.67839 40.1973 3.17969C39.9967 3.68099 39.7962 4.16862 39.5957 4.64258C39.3997 5.11654 39.2015 5.58138 39.001 6.03711C38.8005 6.49284 38.5977 6.94173 38.3926 7.38379C38.7344 7.33366 39.0807 7.28125 39.4316 7.22656C39.7871 7.17188 40.1152 7.12174 40.416 7.07617C40.7214 7.0306 40.9834 6.99186 41.2021 6.95996C41.4209 6.92806 41.5645 6.90527 41.6328 6.8916C42.0202 5.96191 42.3916 5.02083 42.7471 4.06836C43.1071 3.11133 43.4648 2.13607 43.8203 1.14258C43.9525 1.27474 44.096 1.41829 44.251 1.57324C44.4059 1.72819 44.554 1.8763 44.6953 2.01758C44.8366 2.15885 44.9596 2.28418 45.0645 2.39355C45.1693 2.49837 45.2399 2.57129 45.2764 2.6123C44.9574 3.29134 44.6452 3.95443 44.3398 4.60156C44.0345 5.2487 43.7314 5.88216 43.4307 6.50195C43.8363 6.40169 44.1598 6.31055 44.4014 6.22852C44.6429 6.14193 44.8252 6.07585 44.9482 6.03027C45.0758 5.98014 45.1556 5.95052 45.1875 5.94141C45.2194 5.93229 45.2308 5.94824 45.2217 5.98926C45.208 6.02572 45.1784 6.0918 45.1328 6.1875C45.0872 6.27865 45.0303 6.38346 44.9619 6.50195C44.8981 6.62044 44.8252 6.74577 44.7432 6.87793C44.6611 7.00553 44.5791 7.12402 44.4971 7.2334C44.4196 7.34277 44.3444 7.43392 44.2715 7.50684C44.1986 7.57975 44.137 7.61849 44.0869 7.62305C43.9912 7.64128 43.8796 7.65951 43.752 7.67773C43.6426 7.69596 43.5059 7.71875 43.3418 7.74609C43.1823 7.76888 42.9977 7.79622 42.7881 7.82812C42.3141 8.79427 41.8675 9.67155 41.4482 10.46C41.0335 11.2438 40.6576 11.9046 40.3203 12.4424C40.1517 12.3057 39.9922 12.1689 39.8418 12.0322C39.6914 11.9001 39.5433 11.8089 39.3975 11.7588C39.3109 11.221 39.1491 10.6377 38.9121 10.0088C38.6751 9.37533 38.3857 8.74642 38.0439 8.12207C37.7204 8.80566 37.39 9.4847 37.0527 10.1592C36.7155 10.8291 36.3577 11.5195 35.9795 12.2305C35.7835 12.071 35.5967 11.9297 35.4189 11.8066C35.2367 11.6882 35.084 11.5833 34.9609 11.4922C35.1615 11.0957 35.3802 10.6445 35.6172 10.1387C35.8542 9.62826 36.098 9.07682 36.3486 8.48438C36.6038 7.88737 36.8613 7.25846 37.1211 6.59766C37.3809 5.93229 37.6383 5.24642 37.8936 4.54004C38.1488 3.83366 38.3971 3.11589 38.6387 2.38672C38.8802 1.65299 39.1058 0.921549 39.3154 0.192383C39.4476 0.319987 39.582 0.447591 39.7188 0.575195C39.86 0.698242 39.9967 0.821289 40.1289 0.944336C40.2656 1.06283 40.391 1.18132 40.5049 1.2998C40.6234 1.41374 40.7259 1.52083 40.8125 1.62109ZM39.9648 10.6445C40.3704 9.79688 40.7646 8.93327 41.1475 8.05371C40.4775 8.1403 39.7005 8.22917 38.8164 8.32031C38.9395 8.51172 39.0557 8.71224 39.165 8.92188C39.279 9.13151 39.3838 9.33887 39.4795 9.54395C39.5798 9.74902 39.6686 9.94727 39.7461 10.1387C39.8281 10.3255 39.901 10.4941 39.9648 10.6445ZM48.5029 10.3984C48.5029 10.4258 48.5166 10.4395 48.5439 10.4395C48.5941 10.4395 48.6693 10.4098 48.7695 10.3506C48.8743 10.2913 48.9928 10.2161 49.125 10.125C49.2572 10.0339 49.3962 9.93132 49.542 9.81738C49.6878 9.70345 49.8268 9.59408 49.959 9.48926C50.0911 9.37988 50.2096 9.27962 50.3145 9.18848C50.4238 9.09733 50.5059 9.02897 50.5605 8.9834C50.6016 9.02441 50.6494 9.07682 50.7041 9.14062C50.7633 9.20443 50.818 9.26367 50.8682 9.31836C50.7679 9.41862 50.6403 9.53939 50.4854 9.68066C50.335 9.82194 50.1686 9.97005 49.9863 10.125C49.8086 10.2754 49.6217 10.4258 49.4258 10.5762C49.2344 10.722 49.0475 10.8542 48.8652 10.9727C48.6829 11.0866 48.512 11.18 48.3525 11.2529C48.193 11.3258 48.0609 11.3623 47.9561 11.3623C47.8786 11.3623 47.792 11.3372 47.6963 11.2871C47.6006 11.2415 47.5094 11.18 47.4229 11.1025C47.3408 11.0296 47.2702 10.9476 47.2109 10.8564C47.1562 10.7653 47.1289 10.6787 47.1289 10.5967C47.1289 10.5238 47.1562 10.3848 47.2109 10.1797C47.2656 9.97461 47.3317 9.73535 47.4092 9.46191C47.2041 9.73991 47.0036 9.986 46.8076 10.2002C46.6117 10.4098 46.4316 10.5898 46.2676 10.7402C46.1035 10.8906 45.96 11.0114 45.8369 11.1025C45.7139 11.1982 45.6227 11.2666 45.5635 11.3076C45.527 11.3304 45.4837 11.3464 45.4336 11.3555C45.3835 11.3691 45.3379 11.376 45.2969 11.376C45.2103 11.376 45.1146 11.3486 45.0098 11.2939C44.9049 11.2438 44.8092 11.18 44.7227 11.1025C44.6315 11.0251 44.5563 10.9385 44.4971 10.8428C44.4333 10.7471 44.4014 10.6559 44.4014 10.5693C44.4014 10.4691 44.4355 10.3027 44.5039 10.0703C44.5677 9.83789 44.6566 9.5599 44.7705 9.23633C44.8799 8.91276 45.0098 8.55046 45.1602 8.14941C45.3105 7.74837 45.4723 7.32682 45.6455 6.88477C45.6546 6.86198 45.6615 6.85286 45.666 6.85742C45.6751 6.85742 45.6888 6.85742 45.707 6.85742C45.7936 6.87109 45.9121 6.90755 46.0625 6.9668C46.2129 7.02148 46.3587 7.08301 46.5 7.15137C46.6458 7.21973 46.7712 7.28581 46.876 7.34961C46.9808 7.40885 47.0332 7.44987 47.0332 7.47266C47.0195 7.50456 46.9831 7.57975 46.9238 7.69824C46.8691 7.81673 46.8031 7.96029 46.7256 8.12891C46.6527 8.29297 46.5729 8.47298 46.4863 8.66895C46.4043 8.86035 46.3268 9.04492 46.2539 9.22266C46.1855 9.40039 46.1286 9.56217 46.083 9.70801C46.0374 9.84928 46.0146 9.9541 46.0146 10.0225C46.0146 10.0407 46.0238 10.0498 46.042 10.0498C46.0785 10.0498 46.1582 10.002 46.2812 9.90625C46.4043 9.80599 46.5547 9.65104 46.7324 9.44141C46.9147 9.23177 47.1198 8.96289 47.3477 8.63477C47.5755 8.30208 47.8125 7.90332 48.0586 7.43848L48.25 6.89844C48.2637 6.86198 48.2933 6.84375 48.3389 6.84375C48.3708 6.84375 48.4391 6.87565 48.5439 6.93945C48.6533 6.9987 48.7673 7.06934 48.8857 7.15137C49.0088 7.22884 49.1182 7.30859 49.2139 7.39062C49.3096 7.4681 49.362 7.52279 49.3711 7.55469C49.3711 7.56836 49.3688 7.59342 49.3643 7.62988C49.3597 7.66178 49.3529 7.68913 49.3438 7.71191C49.2982 7.83496 49.2458 7.98079 49.1865 8.14941C49.1273 8.31348 49.0658 8.48665 49.002 8.66895C48.9427 8.84668 48.8835 9.02669 48.8242 9.20898C48.765 9.39128 48.7103 9.56217 48.6602 9.72168C48.6146 9.87663 48.5758 10.0156 48.5439 10.1387C48.5166 10.2572 48.5029 10.3438 48.5029 10.3984ZM53.7188 10.2549C53.6823 10.2549 53.6481 10.2549 53.6162 10.2549C53.5889 10.2549 53.5592 10.2503 53.5273 10.2412C53.377 10.4007 53.2152 10.5511 53.042 10.6924C52.8734 10.8291 52.7025 10.9476 52.5293 11.0479C52.3561 11.1527 52.1852 11.2324 52.0166 11.2871C51.8525 11.3464 51.6953 11.376 51.5449 11.376C51.4036 11.376 51.2555 11.3258 51.1006 11.2256C50.9502 11.1253 50.8112 11.0068 50.6836 10.8701C50.556 10.7288 50.4512 10.5853 50.3691 10.4395C50.2871 10.2936 50.2461 10.1774 50.2461 10.0908C50.2461 9.87663 50.2712 9.58952 50.3213 9.22949C50.3714 8.86491 50.4603 8.45247 50.5879 7.99219C50.7155 7.52734 50.8887 7.02604 51.1074 6.48828C51.3307 5.95052 51.6133 5.40137 51.9551 4.84082C52.4062 4.10254 52.8392 3.50098 53.2539 3.03613C53.6732 2.57129 54.0537 2.20671 54.3955 1.94238C54.7419 1.6735 55.0449 1.48438 55.3047 1.375C55.5645 1.26107 55.7627 1.18815 55.8994 1.15625C55.9997 1.15625 56.109 1.18359 56.2275 1.23828C56.3506 1.28841 56.4668 1.35905 56.5762 1.4502C56.6901 1.53678 56.7926 1.63704 56.8838 1.75098C56.9749 1.86035 57.0387 1.97428 57.0752 2.09277C57.0205 2.41178 56.9134 2.73535 56.7539 3.06348C56.599 3.38704 56.4053 3.71517 56.1729 4.04785C55.945 4.37598 55.6829 4.70866 55.3867 5.0459C55.0905 5.38314 54.7715 5.72266 54.4297 6.06445C54.0879 6.40169 53.7301 6.73893 53.3564 7.07617C52.9873 7.41341 52.6113 7.75065 52.2285 8.08789C52.1602 8.31576 52.0986 8.53451 52.0439 8.74414C51.9893 8.95378 51.9414 9.14746 51.9004 9.3252C51.8639 9.50293 51.8343 9.66016 51.8115 9.79688C51.7933 9.92904 51.7842 10.0361 51.7842 10.1182C51.7842 10.2458 51.7933 10.3324 51.8115 10.3779C51.8298 10.4189 51.8685 10.4395 51.9277 10.4395C51.987 10.4395 52.0553 10.4167 52.1328 10.3711C52.2148 10.321 52.2992 10.2549 52.3857 10.1729C52.4723 10.0908 52.5612 9.9974 52.6523 9.89258C52.7435 9.7832 52.8301 9.66927 52.9121 9.55078C52.9076 9.51888 52.9053 9.48926 52.9053 9.46191C52.9053 9.43457 52.9053 9.40951 52.9053 9.38672C52.9053 9.21354 52.9326 9.04264 52.9873 8.87402C53.042 8.7054 53.1126 8.5459 53.1992 8.39551C53.2858 8.24512 53.3815 8.10384 53.4863 7.97168C53.5957 7.83952 53.7051 7.72103 53.8145 7.61621C53.8691 7.65723 53.9238 7.71191 53.9785 7.78027C54.0378 7.84863 54.0947 7.92839 54.1494 8.01953C54.2087 8.10612 54.2633 8.19727 54.3135 8.29297C54.3682 8.38867 54.4206 8.48438 54.4707 8.58008C54.4479 8.75326 54.3932 8.93327 54.3066 9.12012C54.2246 9.30697 54.1175 9.49382 53.9854 9.68066H54.0127C54.1676 9.68066 54.3158 9.66927 54.457 9.64648C54.5983 9.61914 54.735 9.57585 54.8672 9.5166C55.0039 9.4528 55.1383 9.37077 55.2705 9.27051C55.4027 9.16569 55.5371 9.03809 55.6738 8.8877C55.7194 8.92871 55.7741 8.98568 55.8379 9.05859C55.9017 9.12695 55.9564 9.1862 56.002 9.23633C55.8105 9.43685 55.6214 9.60319 55.4346 9.73535C55.2477 9.86296 55.0609 9.96549 54.874 10.043C54.6872 10.1204 54.498 10.1751 54.3066 10.207C54.1198 10.2389 53.9238 10.2549 53.7188 10.2549ZM53.3496 5.23047C53.2311 5.44922 53.1149 5.68848 53.001 5.94824C52.887 6.20801 52.7777 6.48145 52.6729 6.76855C53.1696 6.28548 53.6322 5.80924 54.0605 5.33984C54.4889 4.86589 54.8581 4.42383 55.168 4.01367C55.4779 3.60352 55.7217 3.23438 55.8994 2.90625C56.0771 2.57357 56.166 2.30241 56.166 2.09277C56.166 2.02897 56.1432 1.99707 56.0977 1.99707C56.0293 1.99707 55.9131 2.0472 55.749 2.14746C55.585 2.24316 55.3822 2.41406 55.1406 2.66016C54.9036 2.90169 54.6325 3.2321 54.3271 3.65137C54.0264 4.06608 53.7005 4.59245 53.3496 5.23047Z" fill="#048D8F"/>
</svg>
